<svg width="1284" height="2778" viewBox="0 0 1284 2778" xmlns="http://www.w3.org/2000/svg">
  <!-- Background -->
  <rect width="1284" height="2778" fill="#6750A4"/>
  
  <!-- Central logo -->
  <g transform="translate(392, 1139)">
    <!-- Shield background -->
    <circle cx="250" cy="250" r="200" fill="#FFFFFF" opacity="0.9"/>
    
    <!-- Shield icon -->
    <path d="M250 100L150 140V240C150 320 200 400 250 430C300 400 350 320 350 240V140L250 100Z" 
          fill="#6750A4"/>
    
    <!-- Lock -->
    <rect x="220" y="210" width="60" height="50" rx="4" fill="#FFFFFF"/>
    <path d="M235 200V185C235 175 242 165 250 165C258 165 265 175 265 185V200" 
          stroke="#FFFFFF" stroke-width="4" fill="none" stroke-linecap="round"/>
    
    <!-- Key hole -->
    <circle cx="250" cy="225" r="4" fill="#6750A4"/>
    <rect x="248" y="229" width="4" height="12" fill="#6750A4"/>
  </g>
  
  <!-- App name -->
  <text x="642" y="1500" text-anchor="middle" fill="#FFFFFF" font-size="72" font-family="Arial, sans-serif" font-weight="bold">SecureShare</text>
  <text x="642" y="1580" text-anchor="middle" fill="#FFFFFF" font-size="32" font-family="Arial, sans-serif" opacity="0.8">Share secrets securely</text>
</svg>